<?xml version="1.0" standalone="no"?>
<!DOCTYPE svg PUBLIC "-//W3C//DTD SVG 20010904//EN"
 "http://www.w3.org/TR/2001/REC-SVG-20010904/DTD/svg10.dtd">
<svg version="1.0" xmlns="http://www.w3.org/2000/svg"
 width="533.000000pt" height="206.000000pt" viewBox="0 0 533.000000 206.000000"
 preserveAspectRatio="xMidYMid meet">

<g transform="translate(0.000000,206.000000) scale(0.100000,-0.100000)"
fill="#000000" stroke="none">
<path d="M327 1759 c-114 -39 -197 -111 -247 -214 -105 -215 -16 -472 199
-578 63 -30 72 -32 181 -32 111 0 118 1 185 34 250 123 319 433 147 659 -96
126 -308 185 -465 131z m271 -14 l42 -17 0 -66 c0 -46 -5 -71 -16 -83 -12 -14
-13 -22 -4 -38 11 -22 19 -25 44 -15 18 7 22 49 6 59 -13 8 -13 125 -1 125 5
0 23 -12 40 -26 31 -26 31 -27 31 -123 0 -100 7 -121 42 -121 22 0 23 -8 2
-31 -21 -24 -2 -62 29 -57 49 7 25 78 -35 105 -27 12 -28 14 -28 100 l0 86 25
-23 c35 -33 83 -133 95 -199 10 -55 7 -104 -12 -178 l-11 -43 -71 0 c-43 0
-77 5 -84 12 -18 18 -16 172 3 188 33 27 9 79 -29 64 -26 -10 -30 -64 -5 -64
5 0 9 -42 9 -93 0 -59 4 -97 12 -105 7 -7 40 -12 80 -12 85 0 87 -14 11 -107
-34 -43 -35 -43 -99 -43 l-64 0 0 33 c0 17 7 40 15 51 18 23 3 56 -25 56 -28
0 -43 -33 -25 -56 8 -11 15 -34 15 -52 l0 -33 -57 3 -58 3 -3 65 c-2 35 -8 70
-14 77 -6 8 -34 13 -71 13 -43 0 -66 5 -79 17 -24 22 -53 6 -53 -28 0 -18 6
-25 26 -27 14 -2 31 4 39 12 14 18 95 22 120 6 10 -6 17 -32 20 -77 l5 -68
125 -5 125 -5 -45 -27 c-89 -52 -214 -72 -302 -47 -35 9 -38 13 -38 46 0 21 6
41 16 48 11 8 14 19 9 34 -10 32 -59 26 -63 -8 -2 -13 2 -27 9 -32 17 -10 24
-69 8 -69 -19 0 -81 40 -121 79 l-38 35 0 133 0 133 91 0 c109 0 129 8 129 54
0 21 6 36 15 40 20 7 19 40 -1 57 -11 9 -20 10 -32 2 -24 -14 -27 -44 -7 -59
10 -8 15 -23 13 -41 l-3 -28 -102 -5 c-56 -3 -105 -9 -110 -13 -4 -5 -10 -63
-13 -130 l-5 -122 -34 68 c-29 58 -35 82 -39 152 -2 46 -2 95 2 109 6 26 8 26
100 26 106 0 106 0 106 80 0 31 5 52 15 60 9 7 15 23 13 34 -2 16 -10 21 -33
21 -24 0 -31 -5 -33 -24 -2 -15 3 -28 12 -33 16 -9 23 -79 10 -112 -8 -21
-174 -24 -174 -3 0 31 55 119 104 165 48 45 140 102 166 102 6 0 10 -29 10
-71 0 -100 7 -109 83 -109 36 0 68 -5 75 -12 8 -8 12 -49 12 -117 0 -84 -3
-108 -17 -123 -22 -24 -6 -53 28 -53 19 0 25 6 27 28 2 18 -2 29 -12 33 -13 5
-16 26 -16 118 0 74 -4 116 -12 124 -7 7 -38 12 -69 12 -71 0 -91 16 -87 69
l3 36 64 3 c48 2 68 -1 81 -13 28 -25 55 -15 55 20 0 35 -27 45 -55 20 -13
-12 -33 -15 -81 -13 -58 3 -64 5 -67 26 -2 15 3 25 20 32 33 14 165 5 216 -15z
m-41 -41 c8 -21 -13 -42 -28 -27 -13 13 -5 43 11 43 6 0 13 -7 17 -16z m-284
-68 c9 -22 -18 -40 -33 -22 -6 9 -9 20 -5 26 9 15 32 12 38 -4z m395 -79 c2
-12 -3 -17 -17 -17 -12 0 -21 6 -21 13 0 31 32 34 38 4z m-285 -73 c9 -10 -4
-34 -18 -34 -17 0 -28 17 -20 30 7 11 28 13 38 4z m312 -54 c0 -8 -8 -16 -17
-18 -13 -2 -18 3 -18 18 0 15 5 20 18 18 9 -2 17 -10 17 -18z m133 -43 c2 -12
-3 -17 -17 -17 -12 0 -21 6 -21 13 0 31 32 34 38 4z m-281 -83 c9 -23 -13 -40
-32 -24 -12 10 -13 16 -4 26 15 18 28 18 36 -2z m-239 -111 c5 -18 -28 -29
-38 -12 -5 7 -6 17 -3 22 7 12 35 5 41 -10z m310 -50 c-2 -10 -10 -18 -18 -18
-8 0 -16 8 -18 18 -2 12 3 17 18 17 15 0 20 -5 18 -17z m-278 -73 c0 -11 -6
-20 -14 -20 -18 0 -29 16 -21 30 11 18 35 11 35 -10z"/>
<path d="M1058 1371 c-3 -125 -2 -141 17 -141 11 0 15 21 17 91 l3 90 45 -75
c24 -42 47 -76 50 -76 3 0 26 34 50 76 l45 75 3 -90 c2 -72 6 -91 17 -91 12 0
15 22 15 125 0 93 -3 125 -12 125 -7 0 -35 -38 -61 -85 -27 -47 -52 -85 -56
-85 -3 0 -29 38 -56 85 -28 46 -55 85 -62 85 -8 0 -13 -33 -15 -109z"/>
<path d="M1452 1344 c3 -65 7 -79 27 -95 28 -23 69 -24 99 -3 20 14 22 14 22
0 0 -9 7 -16 15 -16 12 0 15 17 15 95 0 78 -3 95 -15 95 -12 0 -15 -13 -15
-59 0 -70 -21 -103 -65 -103 -41 0 -55 25 -55 99 0 51 -3 63 -16 63 -14 0 -16
-11 -12 -76z"/>
<path d="M1969 701 c-21 -22 -29 -39 -29 -65 0 -33 -2 -36 -31 -36 -27 0 -30
-3 -27 -27 2 -22 9 -29 31 -31 l27 -3 0 -125 0 -124 35 0 35 0 0 124 0 125 43
3 c38 3 42 6 45 31 3 26 2 27 -42 27 -41 0 -46 2 -46 23 0 38 15 50 53 45 31
-3 37 -1 42 20 9 35 -1 42 -56 42 -42 0 -55 -5 -80 -29z"/>
<path d="M3050 510 l0 -220 35 0 35 0 0 100 c0 94 2 103 25 125 32 33 93 34
121 4 15 -17 19 -40 22 -125 l4 -104 34 0 34 0 -1 103 c0 116 -12 162 -50 190
-39 29 -106 33 -151 9 l-38 -20 0 79 0 79 -35 0 -35 0 0 -220z"/>
<path d="M3840 510 l0 -220 40 0 40 0 0 43 c0 34 6 49 26 68 l26 24 21 -26
c12 -14 38 -44 57 -68 32 -39 38 -42 77 -39 l41 3 -70 88 -71 88 64 65 63 64
-43 0 c-41 0 -50 -5 -115 -67 l-71 -68 -3 133 -3 132 -39 0 -40 0 0 -220z"/>
<path d="M2745 699 c-17 -4 -44 -22 -60 -39 -24 -25 -30 -40 -30 -77 0 -58 30
-85 128 -114 114 -34 143 -63 100 -101 -37 -31 -85 -30 -199 7 -15 5 -23 0
-32 -19 -11 -24 -9 -27 28 -46 85 -44 207 -34 262 20 22 23 28 37 28 73 0 39
-5 49 -34 75 -20 17 -55 35 -87 42 -91 21 -119 38 -119 72 0 24 6 32 38 45 36
15 72 13 148 -12 18 -5 23 -2 28 21 8 31 0 38 -54 54 -42 12 -103 12 -145 -1z"/>
<path d="M30 495 l0 -205 35 0 35 0 0 132 c0 153 -2 152 81 15 76 -127 80
-126 166 15 l68 113 3 -137 3 -138 34 0 35 0 0 205 0 205 -34 0 c-33 0 -36 -3
-113 -135 -43 -74 -80 -135 -83 -135 -3 0 -41 61 -85 135 -76 130 -81 135
-112 135 l-33 0 0 -205z"/>
<path d="M1320 635 c0 -31 -3 -35 -25 -35 -21 0 -25 -5 -25 -30 0 -25 4 -30
24 -30 24 0 24 -2 28 -99 3 -88 6 -102 26 -124 29 -31 77 -41 120 -26 36 12
36 13 22 39 -8 15 -17 18 -39 14 -44 -9 -61 23 -61 118 l0 78 45 0 c43 0 45 1
45 30 0 29 -2 30 -45 30 -45 0 -45 0 -45 35 0 33 -2 35 -35 35 -33 0 -35 -2
-35 -35z"/>
<path d="M1056 600 c-47 -15 -76 -49 -76 -90 0 -48 30 -76 95 -89 28 -6 60
-13 73 -16 31 -7 29 -42 -4 -57 -24 -11 -90 -3 -135 16 -11 5 -19 -1 -27 -19
-16 -34 -17 -32 21 -43 62 -19 106 -23 152 -11 113 29 115 151 2 174 -88 18
-107 26 -107 45 0 11 10 24 21 31 21 11 87 8 120 -5 10 -5 19 1 27 18 10 22 9
27 -7 36 -28 14 -122 21 -155 10z"/>
<path d="M1625 601 c-47 -12 -76 -31 -69 -44 19 -34 24 -35 64 -20 42 17 101
12 118 -10 5 -6 13 -22 16 -34 7 -22 5 -23 -66 -23 -93 0 -134 -22 -144 -75
-16 -88 107 -145 194 -89 19 13 22 13 22 -1 0 -11 10 -15 35 -15 l35 0 0 105
c0 117 -13 163 -53 190 -29 18 -109 27 -152 16z m135 -198 c0 -33 -41 -63 -86
-63 -50 0 -73 25 -54 60 9 17 21 20 75 20 54 0 65 -3 65 -17z"/>
<path d="M2199 601 c-14 -5 -35 -13 -47 -20 -19 -10 -20 -15 -10 -37 8 -17 17
-23 27 -18 53 21 75 25 106 20 34 -7 55 -30 55 -60 0 -13 -13 -16 -67 -16
-107 0 -162 -48 -137 -118 22 -61 127 -88 188 -49 22 15 26 15 26 2 0 -11 10
-15 36 -15 l36 0 -3 119 c-3 102 -7 124 -25 147 -33 45 -117 65 -185 45z m131
-203 c0 -36 -28 -58 -75 -58 -43 0 -65 13 -65 40 0 29 23 40 82 40 53 0 58 -2
58 -22z"/>
<path d="M3565 603 c-99 -26 -148 -104 -124 -199 27 -106 166 -152 265 -87 34
22 64 84 64 130 0 48 -36 112 -75 134 -33 20 -98 31 -130 22z m101 -85 c29
-26 37 -72 20 -113 -17 -40 -42 -55 -91 -55 -51 0 -85 36 -85 90 0 53 14 78
53 95 37 16 74 10 103 -17z"/>
<path d="M4350 599 c-13 -6 -33 -17 -42 -26 -17 -15 -18 -15 -18 5 0 18 -6 22
-35 22 l-35 0 0 -155 0 -155 35 0 35 0 0 73 c0 122 27 177 87 177 20 0 23 5
23 35 0 37 -7 41 -50 24z"/>
<path d="M590 500 c0 -120 17 -173 64 -197 42 -22 114 -21 149 1 24 16 27 17
27 2 0 -12 9 -16 35 -16 l35 0 0 155 0 155 -35 0 -35 0 0 -90 c0 -129 -19
-160 -95 -160 -54 0 -65 26 -65 147 l0 103 -40 0 -40 0 0 -100z"/>
<path d="M4440 593 c0 -5 29 -76 66 -160 65 -148 65 -152 49 -177 -19 -28 -71
-36 -93 -14 -8 8 -14 4 -24 -17 -11 -24 -10 -29 7 -41 10 -8 38 -14 62 -14 72
0 99 36 187 241 42 97 76 180 76 184 0 3 -14 5 -32 3 -31 -3 -34 -8 -78 -110
-26 -59 -49 -110 -51 -113 -3 -2 -27 47 -53 110 -48 114 -49 115 -82 115 -19
0 -34 -3 -34 -7z"/>
</g>
</svg>
