<?xml version="1.0" standalone="no"?>
<!DOCTYPE svg PUBLIC "-//W3C//DTD SVG 20010904//EN"
 "http://www.w3.org/TR/2001/REC-SVG-20010904/DTD/svg10.dtd">
<svg version="1.0" xmlns="http://www.w3.org/2000/svg"
 width="136.000000pt" height="128.000000pt" viewBox="0 0 136.000000 128.000000"
 preserveAspectRatio="xMidYMid meet">

<g transform="translate(0.000000,128.000000) scale(0.100000,-0.100000)"
fill="#000000" stroke="none">
<path d="M548 947 c-147 -55 -235 -169 -242 -314 -2 -37 -2 -54 0 -38 7 59 28
140 42 169 25 50 105 128 157 152 l50 24 3 -62 c2 -34 8 -68 14 -75 6 -7 30
-13 53 -13 74 0 75 -1 75 -105 0 -52 -4 -97 -10 -100 -16 -10 -12 -45 6 -52 8
-3 23 1 32 10 14 15 14 18 -1 35 -13 14 -17 38 -17 108 0 57 -4 94 -12 102 -7
7 -36 12 -65 12 -60 0 -64 6 -60 95 l2 50 60 3 c68 4 142 -12 168 -35 9 -9 17
-13 17 -9 0 4 14 -2 30 -14 29 -20 30 -24 30 -96 0 -79 11 -114 35 -114 18 0
19 -12 4 -27 -7 -7 -9 -19 -6 -27 8 -20 46 -21 53 -2 7 18 -23 60 -51 72 -17
8 -20 20 -23 77 -2 53 0 68 10 65 19 -6 76 -105 88 -152 l10 -41 -5 38 c-10
94 -93 198 -193 245 -68 32 -193 41 -254 19z m412 -312 c0 -8 -6 -15 -14 -15
-17 0 -28 14 -19 24 12 12 33 6 33 -9z m-234 -66 c10 -17 -13 -36 -27 -22 -12
12 -4 33 11 33 5 0 12 -5 16 -11z"/>
<path d="M690 905 c-10 -12 -10 -18 0 -30 7 -8 18 -15 25 -15 7 0 18 7 25 15
10 12 10 18 0 30 -7 8 -18 15 -25 15 -7 0 -18 -7 -25 -15z m46 -6 c10 -17 -13
-36 -27 -22 -12 12 -4 33 11 33 5 0 12 -5 16 -11z"/>
<path d="M456 844 c-4 -9 0 -24 9 -34 18 -20 20 -81 3 -98 -8 -8 -8 -12 -1
-12 15 0 23 24 23 69 0 20 5 42 11 48 7 7 9 19 6 27 -8 21 -43 20 -51 0z m44
-9 c0 -8 -6 -15 -14 -15 -17 0 -28 14 -19 24 12 12 33 6 33 -9z"/>
<path d="M790 795 c-17 -20 -5 -45 20 -45 11 0 23 7 26 15 6 15 -11 45 -26 45
-4 0 -13 -7 -20 -15z m40 -15 c0 -5 -5 -12 -11 -16 -14 -8 -33 11 -25 25 7 11
36 4 36 -9z"/>
<path d="M550 705 c0 -14 5 -25 11 -25 6 0 9 -12 7 -27 -3 -28 -4 -28 -85 -31
-50 -2 -85 -8 -92 -15 -5 -7 -12 -56 -13 -108 l-3 -94 -19 35 c-11 19 -25 53
-32 75 -7 22 -13 31 -13 20 -1 -11 12 -47 28 -80 35 -75 111 -146 187 -174 94
-36 235 -24 311 26 41 27 18 24 -32 -4 -39 -21 -65 -28 -129 -31 -95 -5 -136
7 -136 39 0 13 7 30 16 40 20 23 12 49 -16 49 -24 0 -38 -26 -21 -43 6 -6 11
-24 11 -39 l0 -28 -39 19 c-21 11 -53 34 -70 51 -30 31 -31 33 -31 128 0 53 4
102 8 109 5 7 40 13 92 15 l85 3 3 30 c2 17 8 34 13 40 19 19 10 45 -16 45
-20 0 -25 -5 -25 -25z m40 0 c0 -8 -7 -15 -15 -15 -8 0 -15 7 -15 15 0 8 7 15
15 15 8 0 15 -7 15 -15z m-32 -332 c2 -8 -5 -13 -17 -13 -12 0 -21 6 -21 16 0
18 31 15 38 -3z"/>
<path d="M807 687 c-3 -9 1 -23 8 -34 9 -12 14 -45 15 -94 0 -87 2 -89 81 -89
27 0 49 -2 49 -5 0 -15 -31 -63 -58 -88 -25 -24 -36 -28 -78 -25 -55 3 -69 25
-39 58 21 23 13 50 -15 50 -24 0 -38 -26 -21 -43 6 -6 11 -24 11 -40 0 -27 -1
-28 -47 -25 l-48 3 -3 40 c-5 83 -7 85 -67 85 -32 0 -55 4 -55 11 0 18 -55 6
-58 -14 -5 -23 24 -33 52 -18 12 7 42 11 67 9 l44 -3 3 -52 c2 -28 8 -56 15
-61 7 -6 59 -12 116 -13 l104 -3 39 45 c46 53 74 123 82 204 6 58 5 57 -12
-20 l-17 -80 -65 0 -65 0 -3 83 c-2 55 1 82 8 82 6 0 10 10 8 23 -4 26 -42 36
-51 14z m43 -10 c0 -8 -3 -17 -7 -20 -9 -9 -34 13 -27 24 8 14 34 11 34 -4z
m-320 -202 c0 -8 -9 -15 -20 -15 -11 0 -20 7 -20 15 0 8 9 15 20 15 11 0 20
-7 20 -15z m253 -40 c1 -5 -6 -11 -15 -13 -11 -2 -18 3 -18 13 0 17 30 18 33
0z"/>
</g>
</svg>
