<?xml version="1.0" standalone="no"?>
<!DOCTYPE svg PUBLIC "-//W3C//DTD SVG 20010904//EN"
 "http://www.w3.org/TR/2001/REC-SVG-20010904/DTD/svg10.dtd">
<svg version="1.0" xmlns="http://www.w3.org/2000/svg"
 width="218.000000pt" height="110.000000pt" viewBox="0 0 218.000000 110.000000"
 preserveAspectRatio="xMidYMid meet">

<g transform="translate(0.000000,110.000000) scale(0.100000,-0.100000)"
fill="#000000" stroke="none">
<path d="M607 959 c-114 -39 -197 -111 -247 -214 -105 -215 -16 -472 199 -578
63 -30 72 -32 181 -32 111 0 118 1 185 34 250 123 319 433 147 659 -96 126
-308 185 -465 131z m271 -14 l42 -17 0 -66 c0 -46 -5 -71 -16 -83 -12 -14 -13
-22 -4 -38 11 -22 19 -25 44 -15 18 7 22 49 6 59 -13 8 -13 125 -1 125 5 0 23
-12 40 -26 31 -26 31 -27 31 -123 0 -100 7 -121 42 -121 22 0 23 -8 2 -31 -21
-24 -2 -62 29 -57 49 7 25 78 -35 105 -27 12 -28 14 -28 100 l0 86 25 -23 c35
-33 83 -133 95 -199 10 -55 7 -104 -12 -178 l-11 -43 -71 0 c-43 0 -77 5 -84
12 -18 18 -16 172 3 188 33 27 9 79 -29 64 -26 -10 -30 -64 -5 -64 5 0 9 -42
9 -93 0 -59 4 -97 12 -105 7 -7 40 -12 80 -12 85 0 87 -14 11 -107 -34 -43
-35 -43 -99 -43 l-64 0 0 33 c0 17 7 40 15 51 18 23 3 56 -25 56 -28 0 -43
-33 -25 -56 8 -11 15 -34 15 -52 l0 -33 -57 3 -58 3 -3 65 c-2 35 -8 70 -14
77 -6 8 -34 13 -71 13 -43 0 -66 5 -79 17 -24 22 -53 6 -53 -28 0 -18 6 -25
26 -27 14 -2 31 4 39 12 14 18 95 22 120 6 10 -6 17 -32 20 -77 l5 -68 125 -5
125 -5 -45 -27 c-89 -52 -214 -72 -302 -47 -35 9 -38 13 -38 46 0 21 6 41 16
48 11 8 14 19 9 34 -10 32 -59 26 -63 -8 -2 -13 2 -27 9 -32 17 -10 24 -69 8
-69 -19 0 -81 40 -121 79 l-38 35 0 133 0 133 91 0 c109 0 129 8 129 54 0 21
6 36 15 40 20 7 19 40 -1 57 -11 9 -20 10 -32 2 -24 -14 -27 -44 -7 -59 10 -8
15 -23 13 -41 l-3 -28 -102 -5 c-56 -3 -105 -9 -110 -13 -4 -5 -10 -63 -13
-130 l-5 -122 -34 68 c-29 58 -35 82 -39 152 -2 46 -2 95 2 109 6 26 8 26 100
26 106 0 106 0 106 80 0 31 5 52 15 60 9 7 15 23 13 34 -2 16 -10 21 -33 21
-24 0 -31 -5 -33 -24 -2 -15 3 -28 12 -33 16 -9 23 -79 10 -112 -8 -21 -174
-24 -174 -3 0 31 55 119 104 165 48 45 140 102 166 102 6 0 10 -29 10 -71 0
-100 7 -109 83 -109 36 0 68 -5 75 -12 8 -8 12 -49 12 -117 0 -84 -3 -108 -17
-123 -22 -24 -6 -53 28 -53 19 0 25 6 27 28 2 18 -2 29 -12 33 -13 5 -16 26
-16 118 0 74 -4 116 -12 124 -7 7 -38 12 -69 12 -71 0 -91 16 -87 69 l3 36 64
3 c48 2 68 -1 81 -13 28 -25 55 -15 55 20 0 35 -27 45 -55 20 -13 -12 -33 -15
-81 -13 -58 3 -64 5 -67 26 -2 15 3 25 20 32 33 14 165 5 216 -15z m-41 -41
c8 -21 -13 -42 -28 -27 -13 13 -5 43 11 43 6 0 13 -7 17 -16z m-284 -68 c9
-22 -18 -40 -33 -22 -6 9 -9 20 -5 26 9 15 32 12 38 -4z m395 -79 c2 -12 -3
-17 -17 -17 -12 0 -21 6 -21 13 0 31 32 34 38 4z m-285 -73 c9 -10 -4 -34 -18
-34 -17 0 -28 17 -20 30 7 11 28 13 38 4z m312 -54 c0 -8 -8 -16 -17 -18 -13
-2 -18 3 -18 18 0 15 5 20 18 18 9 -2 17 -10 17 -18z m133 -43 c2 -12 -3 -17
-17 -17 -12 0 -21 6 -21 13 0 31 32 34 38 4z m-281 -83 c9 -23 -13 -40 -32
-24 -12 10 -13 16 -4 26 15 18 28 18 36 -2z m-239 -111 c5 -18 -28 -29 -38
-12 -5 7 -6 17 -3 22 7 12 35 5 41 -10z m310 -50 c-2 -10 -10 -18 -18 -18 -8
0 -16 8 -18 18 -2 12 3 17 18 17 15 0 20 -5 18 -17z m-278 -73 c0 -11 -6 -20
-14 -20 -18 0 -29 16 -21 30 11 18 35 11 35 -10z"/>
<path d="M1338 571 c-3 -125 -2 -141 17 -141 11 0 15 21 17 91 l3 90 45 -75
c24 -42 47 -76 50 -76 3 0 26 34 50 76 l45 75 3 -90 c2 -72 6 -91 17 -91 12 0
15 22 15 125 0 93 -3 125 -12 125 -7 0 -35 -38 -61 -85 -27 -47 -52 -85 -56
-85 -3 0 -29 38 -56 85 -28 46 -55 85 -62 85 -8 0 -13 -33 -15 -109z"/>
<path d="M1732 544 c3 -65 7 -79 27 -95 28 -23 69 -24 99 -3 20 14 22 14 22 0
0 -9 7 -16 15 -16 12 0 15 17 15 95 0 78 -3 95 -15 95 -12 0 -15 -13 -15 -59
0 -70 -21 -103 -65 -103 -41 0 -55 25 -55 99 0 51 -3 63 -16 63 -14 0 -16 -11
-12 -76z"/>
</g>
</svg>
