<?xml version="1.0" standalone="no"?>
<!DOCTYPE svg PUBLIC "-//W3C//DTD SVG 20010904//EN"
 "http://www.w3.org/TR/2001/REC-SVG-20010904/DTD/svg10.dtd">
<svg version="1.0" xmlns="http://www.w3.org/2000/svg"
 width="418.000000pt" height="177.000000pt" viewBox="0 0 418.000000 177.000000"
 preserveAspectRatio="xMidYMid meet">

<g transform="translate(0.000000,177.000000) scale(0.100000,-0.100000)"
fill="#000000" stroke="none">
<path d="M475 1560 c-34 -17 -27 -19 13 -3 9 4 12 -11 14 -53 1 -36 3 -46 5
-26 4 32 5 32 58 32 30 0 57 -4 60 -10 9 -15 35 -12 42 6 3 8 1 20 -5 26 -8 8
-9 5 -5 -11 4 -15 1 -21 -12 -21 -13 0 -16 6 -12 21 4 17 3 19 -6 10 -6 -6
-35 -11 -65 -11 -50 0 -53 2 -50 23 3 20 10 23 78 28 l75 5 -75 2 c-57 1 -85
-3 -115 -18z"/>
<path d="M745 1527 l50 -32 3 -75 c2 -41 6 -78 10 -82 4 -4 6 24 4 62 -2 46 0
70 7 70 6 0 11 -3 11 -7 0 -5 10 -19 21 -33 23 -28 15 -9 -14 33 -19 28 -113
97 -132 97 -5 0 13 -15 40 -33z"/>
<path d="M384 1508 c-41 -36 -94 -105 -94 -121 0 -6 13 9 28 34 16 25 48 61
72 82 24 20 41 37 37 37 -3 0 -23 -15 -43 -32z"/>
<path d="M418 1483 c6 -2 18 -2 25 0 6 3 1 5 -13 5 -14 0 -19 -2 -12 -5z"/>
<path d="M435 1457 c-16 -10 -19 -21 -17 -59 l3 -48 -65 0 c-46 0 -66 4 -66
13 0 8 -4 7 -10 -3 -5 -8 -9 -26 -9 -40 0 -25 0 -25 9 -2 8 20 16 22 80 22
l70 0 0 50 c0 28 4 50 9 50 5 0 11 7 15 15 3 8 4 15 3 14 -1 -1 -11 -6 -22
-12z"/>
<path d="M710 1425 c-16 -20 0 -39 26 -32 16 4 15 5 -3 6 -24 1 -30 15 -13 26
6 4 19 1 28 -7 15 -12 16 -11 3 5 -17 21 -25 21 -41 2z"/>
<path d="M575 1421 l50 -6 3 -80 c2 -49 -2 -88 -9 -102 -9 -17 -10 -26 -1 -35
8 -8 9 -5 5 11 -4 15 -1 21 12 21 12 0 16 -6 12 -20 -3 -11 -1 -20 4 -20 12 0
12 33 -1 46 -5 5 -10 50 -12 99 l-3 90 -55 1 -55 1 50 -6z"/>
<path d="M881 1375 c1 -19 18 -51 18 -35 0 8 -4 22 -9 30 -5 8 -9 11 -9 5z"/>
<path d="M496 1361 c-4 -5 3 -7 14 -4 14 4 20 0 20 -12 0 -13 -6 -16 -21 -12
-14 4 -18 2 -11 -6 6 -7 12 -21 15 -32 5 -20 5 -20 6 1 0 11 6 25 12 31 7 7 9
19 6 27 -7 17 -32 21 -41 7z"/>
<path d="M1040 1260 c0 -105 18 -123 22 -22 l3 67 33 -57 c19 -32 37 -58 40
-58 4 0 20 22 35 50 40 71 47 71 47 -4 0 -37 4 -66 10 -66 6 0 10 37 10 90 0
51 -4 90 -10 90 -5 0 -26 -29 -47 -65 -21 -35 -40 -65 -43 -65 -3 0 -23 29
-44 65 -21 36 -42 65 -47 65 -5 0 -9 -40 -9 -90z"/>
<path d="M730 1331 c0 -5 9 -7 20 -4 11 3 20 7 20 9 0 2 -9 4 -20 4 -11 0 -20
-4 -20 -9z"/>
<path d="M837 1310 c-3 -11 -1 -17 4 -14 6 3 18 0 27 -7 12 -10 12 -7 -3 11
-11 14 -20 26 -21 28 -1 1 -4 -6 -7 -18z"/>
<path d="M730 1299 c0 -5 4 -9 10 -9 5 0 10 -35 12 -77 l3 -78 58 -3 c31 -2
57 -7 57 -12 0 -5 -15 -28 -33 -52 l-33 -43 -105 0 -104 0 -5 55 -5 55 -50 3
c-27 2 -55 8 -62 14 -17 13 -43 3 -43 -17 0 -20 28 -31 43 -16 6 6 33 11 59
11 l48 0 0 -48 c0 -26 5 -53 12 -60 7 -7 44 -12 96 -12 78 0 83 -1 71 -17 -25
-31 48 25 77 60 30 35 64 104 63 127 0 8 -5 3 -11 -12 -9 -26 -13 -28 -70 -28
l-60 0 4 80 c3 68 1 80 -14 84 -10 2 -18 0 -18 -5z m-260 -164 c0 -8 -7 -15
-15 -15 -8 0 -15 7 -15 15 0 8 7 15 15 15 8 0 15 -7 15 -15z"/>
<path d="M903 1260 c0 -30 2 -43 4 -27 2 15 2 39 0 55 -2 15 -4 2 -4 -28z"/>
<path d="M1340 1252 c0 -58 17 -84 53 -83 84 3 77 -3 77 67 0 36 -4 64 -10 64
-5 0 -10 -20 -10 -44 0 -47 -19 -76 -49 -76 -29 0 -41 22 -41 72 0 26 -4 48
-10 48 -5 0 -10 -22 -10 -48z"/>
<path d="M830 1269 c0 -5 9 -9 20 -9 11 0 20 2 20 4 0 2 -9 6 -20 9 -11 3 -20
1 -20 -4z"/>
<path d="M353 1262 c-8 -5 -13 -42 -15 -102 l-3 -95 -27 50 c-15 28 -27 46
-28 42 0 -14 39 -84 66 -116 27 -33 118 -91 142 -91 23 0 4 17 -25 23 -16 3
-47 19 -71 37 l-43 31 3 107 3 107 80 6 80 5 -75 2 c-41 1 -80 -2 -87 -6z"/>
<path d="M272 1195 c0 -16 2 -22 5 -12 2 9 2 23 0 30 -3 6 -5 -1 -5 -18z"/>
<path d="M670 1111 c0 -5 10 -7 21 -4 16 4 20 2 17 -8 -3 -8 -13 -13 -22 -13
-13 2 -14 -1 -5 -12 9 -11 13 -11 26 2 8 8 12 21 9 29 -6 16 -46 21 -46 6z"/>
<path d="M466 1061 c-3 -5 2 -8 12 -7 9 0 17 -6 17 -14 0 -9 -8 -14 -19 -13
-13 1 -15 -2 -7 -10 8 -8 16 -7 28 5 13 14 14 20 3 32 -14 18 -26 20 -34 7z"/>
<path d="M695 960 c-16 -7 -17 -9 -3 -9 9 -1 20 4 23 9 7 11 7 11 -20 0z"/>
<path d="M648 943 c7 -3 16 -2 19 1 4 3 -2 6 -13 5 -11 0 -14 -3 -6 -6z"/>
<path d="M568 933 c12 -2 30 -2 40 0 9 3 -1 5 -23 4 -22 0 -30 -2 -17 -4z"/>
<path d="M1763 783 c-28 -5 -53 -39 -53 -70 0 -16 -6 -23 -20 -23 -15 0 -20
-7 -20 -25 0 -18 5 -25 20 -25 19 0 20 -7 20 -95 0 -95 0 -95 25 -95 25 0 25
0 25 94 l0 95 33 3 c24 2 32 8 32 23 0 15 -8 21 -33 23 -28 3 -33 7 -30 25 2
17 11 23 35 25 17 2 34 10 37 19 4 9 5 17 4 18 -8 6 -56 11 -75 8z"/>
<path d="M2550 615 l0 -165 25 0 c24 0 25 2 25 75 0 86 18 115 69 115 45 0 61
-31 61 -117 0 -71 1 -73 25 -73 25 0 25 1 25 91 0 87 -1 92 -29 120 -33 33
-78 38 -123 15 l-28 -15 0 60 c0 56 -1 59 -25 59 l-25 0 0 -165z"/>
<path d="M3150 615 l0 -165 30 0 c27 0 30 3 30 33 0 21 8 41 19 51 18 16 21
15 61 -33 33 -39 50 -51 72 -51 15 0 28 3 28 6 0 3 -22 33 -50 67 l-50 61 45
46 c25 25 45 49 45 53 0 4 -12 7 -27 7 -20 0 -44 -16 -85 -56 l-58 -56 0 101
0 101 -30 0 -30 0 0 -165z"/>
<path d="M2333 763 c-46 -6 -83 -44 -83 -88 0 -46 25 -70 97 -91 67 -19 83
-29 83 -55 0 -38 -72 -51 -135 -25 -32 14 -36 13 -45 -3 -12 -24 1 -35 59 -51
89 -24 181 21 181 87 0 40 -33 68 -102 88 -75 21 -94 39 -75 69 15 21 60 27
127 15 20 -3 26 1 28 18 2 14 -3 23 -15 26 -33 9 -88 14 -120 10z"/>
<path d="M260 605 l0 -155 25 0 25 0 0 101 c0 57 4 98 9 95 5 -3 30 -42 56
-86 26 -44 52 -80 58 -80 7 0 35 39 62 86 l50 85 3 -100 3 -101 29 0 30 0 0
155 0 155 -27 0 c-25 0 -35 -12 -86 -101 -32 -55 -61 -97 -66 -95 -4 3 -34 48
-65 101 -47 79 -61 95 -81 95 l-25 0 0 -155z"/>
<path d="M1240 715 c0 -18 -5 -25 -20 -25 -15 0 -20 -7 -20 -25 0 -18 5 -25
20 -25 18 0 20 -7 20 -74 0 -93 16 -118 77 -120 48 -1 57 5 49 32 -5 14 -13
18 -26 15 -36 -9 -50 14 -50 83 l0 64 36 0 c31 0 35 3 32 23 -2 17 -11 23 -35
25 -27 3 -33 7 -33 28 0 19 -5 24 -25 24 -20 0 -25 -5 -25 -25z"/>
<path d="M690 597 c0 -106 11 -131 65 -146 39 -11 72 -5 98 17 15 14 17 13 17
-1 0 -11 8 -17 25 -17 l25 0 0 120 c0 120 0 120 -24 120 -22 0 -24 -4 -28 -82
-4 -69 -8 -84 -28 -100 -29 -23 -55 -23 -80 2 -17 17 -20 33 -20 100 0 79 0
80 -25 80 -25 0 -25 0 -25 -93z"/>
<path d="M1030 683 c-32 -12 -50 -37 -50 -69 0 -39 24 -59 85 -70 52 -9 69
-22 54 -40 -13 -16 -66 -18 -103 -4 -21 8 -27 6 -36 -10 -9 -17 -7 -22 17 -31
15 -7 49 -12 76 -12 123 -2 147 118 27 137 -44 7 -70 21 -70 37 0 17 47 28 84
19 31 -7 38 -5 47 11 8 16 5 21 -16 29 -28 11 -90 12 -115 3z"/>
<path d="M1448 679 c-28 -11 -34 -24 -20 -46 5 -8 13 -9 22 -3 8 6 34 10 57
10 32 0 45 -5 53 -19 5 -11 10 -22 10 -24 0 -3 -29 -8 -64 -12 -76 -8 -99 -27
-94 -77 2 -27 10 -36 41 -52 36 -17 41 -17 78 -3 21 8 39 11 39 6 0 -5 11 -9
25 -9 25 0 25 0 25 93 0 86 -2 95 -25 117 -28 26 -103 36 -147 19z m122 -149
c0 -30 -45 -55 -78 -44 -30 10 -41 42 -20 55 7 5 32 9 56 9 35 0 42 -3 42 -20z"/>
<path d="M1888 679 c-17 -6 -28 -18 -28 -29 0 -22 16 -35 25 -20 3 5 28 10 55
10 39 0 52 -4 60 -19 5 -11 10 -22 10 -24 0 -3 -29 -8 -65 -12 -53 -5 -68 -11
-85 -32 -49 -63 33 -133 116 -98 19 8 34 10 34 4 0 -5 11 -9 25 -9 25 0 25 1
25 89 0 79 -3 93 -23 117 -18 21 -34 27 -73 30 -27 2 -61 -1 -76 -7z m122
-144 c0 -21 -40 -55 -65 -55 -25 0 -45 18 -45 41 0 22 14 27 68 28 30 1 42 -3
42 -14z"/>
<path d="M2904 674 c-58 -28 -81 -103 -50 -163 20 -37 39 -51 81 -61 109 -25
191 81 140 179 -27 54 -110 75 -171 45z m116 -54 c28 -28 26 -75 -5 -105 -55
-55 -124 -13 -115 70 5 53 80 75 120 35z"/>
<path d="M3440 570 l0 -120 25 0 c24 0 25 2 25 69 0 75 23 121 61 121 14 0 19
7 19 25 0 28 -13 31 -52 11 -24 -13 -28 -13 -28 0 0 8 -10 14 -25 14 l-25 0 0
-120z"/>
<path d="M3600 685 c0 -4 23 -60 52 -126 51 -117 51 -119 32 -140 -13 -15 -26
-19 -45 -15 -18 3 -32 0 -40 -10 -18 -22 5 -35 61 -32 38 3 48 8 66 36 23 33
124 265 124 283 0 6 -10 9 -22 7 -18 -2 -30 -21 -57 -85 -18 -46 -37 -83 -41
-83 -4 0 -23 37 -42 83 -30 71 -38 82 -61 85 -15 2 -27 0 -27 -3z"/>
</g>
</svg>
